<svg width="88" height="160" viewBox="0 0 88 160" fill="none" xmlns="http://www.w3.org/2000/svg">
<path d="M11.7255 158.59C12.4583 158.224 29.8633 141.002 50.4744 120.391C85.9256 85.0314 87.9409 82.8329 87.9409 79.7183C87.9409 76.6037 85.9256 74.4052 50.4744 39.0456C29.8633 18.4345 12.4583 1.2127 11.7255 0.846282C7.32841 -1.99348 3.33786e-06 2.76999 3.33786e-06 8.3579C3.33786e-06 11.1061 3.02297 14.4954 34.0771 45.5496L68.2458 79.7183L34.0771 113.887C3.02297 144.941 3.33786e-06 148.331 3.33786e-06 151.079C3.33786e-06 156.667 7.32841 161.43 11.7255 158.59Z" fill="white"/>
</svg>
